<svg version="1.1" xmlns="http://www.w3.org/2000/svg" viewBox="0 0 616.0180173505153 750.75" width="1232.0360347010305" height="1501.5">
  <!-- svg-source:excalidraw -->
  
  <defs>
    <style class="style-fonts">
      @font-face {
        font-family: "Virgil";
        src: url("https://excalidraw.com/Virgil.woff2");
      }
      @font-face {
        font-family: "Cascadia";
        src: url("https://excalidraw.com/Cascadia.woff2");
      }
    </style>
  </defs>
  <rect x="0" y="0" width="616.0180173505153" height="750.75" fill="#000"></rect><g stroke-linecap="round" transform="translate(52.018017350515265 216.75) rotate(0 80 23.5)"><path d="M11.75 0 M11.75 0 C59.1 -1.68, 105.35 -1.68, 148.25 0 M11.75 0 C53.29 -1.58, 93.04 -0.21, 148.25 0 M148.25 0 C157.91 1.76, 160.44 2.93, 160 11.75 M148.25 0 C155.14 0.1, 160.5 3.64, 160 11.75 M160 11.75 C159.73 19.82, 160.38 29.17, 160 35.25 M160 11.75 C159.82 20.57, 160.47 28.56, 160 35.25 M160 35.25 C161.95 43.12, 154.87 47.6, 148.25 47 M160 35.25 C161.03 44.17, 158.03 46.62, 148.25 47 M148.25 47 C96.73 47.06, 44.56 47.64, 11.75 47 M148.25 47 C111.39 46.43, 72.78 46.26, 11.75 47 M11.75 47 C3.93 48.01, -1.87 42.41, 0 35.25 M11.75 47 C3.27 45.73, 0.31 44.5, 0 35.25 M0 35.25 C-0.14 25.3, -0.17 15.77, 0 11.75 M0 35.25 C-0.18 30.53, -0.69 24.27, 0 11.75 M0 11.75 C0.71 4.78, 1.92 -1.37, 11.75 0 M0 11.75 C-1.78 4.3, 3.09 -0.62, 11.75 0" stroke="#e1ff00" stroke-width="2" fill="none"></path></g><g transform="translate(88.27404457219495 230.25) rotate(0 43.74397277832031 10)"><text x="43.74397277832031" y="0" font-family="Virgil, Segoe UI Emoji" font-size="16px" fill="#e1ff00" text-anchor="middle" style="white-space: pre;" direction="ltr" dominant-baseline="text-before-edge">Hacer café</text></g><g stroke-linecap="round" transform="translate(141.26801735051527 84) rotate(0 58.5 58)"><path d="M73.75 14.75 M73.75 14.75 C79.88 20.85, 88.16 30.24, 102.25 44.25 M73.75 14.75 C80.16 21.33, 85.21 26.34, 102.25 44.25 M102.25 44.25 C117.17 60.13, 117.8 57.67, 102.25 73.75 M102.25 44.25 C116.11 58.32, 115.28 58.97, 102.25 73.75 M102.25 73.75 C95.7 82.12, 85.53 88.25, 73.75 101.25 M102.25 73.75 C92.75 84.16, 81.53 93.99, 73.75 101.25 M73.75 101.25 C59.52 114.67, 59.8 115.12, 44.25 101.25 M73.75 101.25 C59.3 118.29, 61.23 114.57, 44.25 101.25 M44.25 101.25 C35.54 95.01, 27.79 88.39, 14.75 73.75 M44.25 101.25 C33.1 91.36, 20.95 79.71, 14.75 73.75 M14.75 73.75 C-0.42 60.82, -0.01 59.69, 14.75 44.25 M14.75 73.75 C0.79 58.72, 0.78 59.42, 14.75 44.25 M14.75 44.25 C22.56 36.2, 29.36 29.53, 44.25 14.75 M14.75 44.25 C22.3 36.56, 28.86 29.56, 44.25 14.75 M44.25 14.75 C57.51 1.79, 58.34 0.88, 73.75 14.75 M44.25 14.75 C57.45 0.15, 60.51 -0.15, 73.75 14.75" stroke="#e613c4ff" stroke-width="2" fill="none"></path></g><g transform="translate(175.83402687199964 122) rotate(0 24.183990478515625 20)"><text x="24.183990478515625" y="0" font-family="Virgil, Segoe UI Emoji" font-size="16px" fill="#e613c4ff" text-anchor="middle" style="white-space: pre;" direction="ltr" dominant-baseline="text-before-edge">Quiero</text><text x="24.183990478515625" y="20" font-family="Virgil, Segoe UI Emoji" font-size="16px" fill="#e613c4ff" text-anchor="middle" style="white-space: pre;" direction="ltr" dominant-baseline="text-before-edge">café?</text></g><g stroke-linecap="round" transform="translate(182.01801735051527 10) rotate(0 16.5 16)"><path d="M3.72 5.88 C3.72 5.88, 3.72 5.88, 3.72 5.88 M3.72 5.88 C3.72 5.88, 3.72 5.88, 3.72 5.88 M1.88 20.19 C6.24 15.17, 10.6 10.16, 18.28 1.32 M1.88 20.19 C6.89 14.42, 11.9 8.66, 18.28 1.32 M5.95 27.7 C11.55 21.25, 17.15 14.81, 26.94 3.55 M5.95 27.7 C11.73 21.05, 17.52 14.39, 26.94 3.55 M12.64 32.19 C16.85 27.35, 21.06 22.51, 32.33 9.55 M12.64 32.19 C19.45 24.36, 26.25 16.54, 32.33 9.55 M25.24 29.89 C26.76 28.15, 28.28 26.4, 32.46 21.59 M25.24 29.89 C26.77 28.14, 28.29 26.39, 32.46 21.59" stroke="#f4f4f4" stroke-width="1" fill="none"></path><path d="M33 16 C33 16.93, 32.92 17.87, 32.75 18.78 C32.58 19.69, 32.33 20.6, 32 21.47 C31.68 22.34, 31.27 23.2, 30.79 24 C30.31 24.8, 29.75 25.58, 29.14 26.28 C28.53 26.99, 27.84 27.66, 27.11 28.26 C26.37 28.85, 25.58 29.39, 24.75 29.86 C23.92 30.32, 23.04 30.72, 22.14 31.04 C21.25 31.35, 20.31 31.6, 19.37 31.76 C18.42 31.92, 17.46 32, 16.5 32 C15.54 32, 14.58 31.92, 13.63 31.76 C12.69 31.6, 11.75 31.35, 10.86 31.04 C9.96 30.72, 9.08 30.32, 8.25 29.86 C7.42 29.39, 6.63 28.85, 5.89 28.26 C5.16 27.66, 4.47 26.99, 3.86 26.28 C3.25 25.58, 2.69 24.8, 2.21 24 C1.73 23.2, 1.32 22.34, 1 21.47 C0.67 20.6, 0.42 19.69, 0.25 18.78 C0.08 17.87, 0 16.93, 0 16 C0 15.07, 0.08 14.13, 0.25 13.22 C0.42 12.31, 0.67 11.4, 1 10.53 C1.32 9.66, 1.73 8.8, 2.21 8 C2.69 7.2, 3.25 6.42, 3.86 5.72 C4.47 5.01, 5.16 4.34, 5.89 3.74 C6.63 3.15, 7.42 2.61, 8.25 2.14 C9.08 1.68, 9.96 1.28, 10.86 0.96 C11.75 0.65, 12.69 0.4, 13.63 0.24 C14.58 0.08, 15.54 0, 16.5 0 C17.46 0, 18.42 0.08, 19.37 0.24 C20.31 0.4, 21.25 0.65, 22.14 0.96 C23.04 1.28, 23.92 1.68, 24.75 2.14 C25.58 2.61, 26.37 3.15, 27.11 3.74 C27.84 4.34, 28.53 5.01, 29.14 5.72 C29.75 6.42, 30.31 7.2, 30.79 8 C31.27 8.8, 31.68 9.66, 32 10.53 C32.33 11.4, 32.58 12.31, 32.75 13.22 C32.92 14.13, 32.96 15.54, 33 16 C33.04 16.46, 33.04 15.54, 33 16" stroke="#f4f4f4" stroke-width="2" fill="none"></path></g><g stroke-linecap="round"><g transform="translate(198.82652006506146 40.49735823274051) rotate(0 0.7929297978020031 21.2215048195807)"><path d="M0 0 C0.26 7.07, 1.32 35.37, 1.59 42.44 M0 0 C0.26 7.07, 1.32 35.37, 1.59 42.44" stroke="#f4f4f4" stroke-width="2" fill="none"></path></g><g transform="translate(198.82652006506146 40.49735823274051) rotate(0 0.7929297978020031 21.2215048195807)"><path d="M1.59 42.44 L-5.26 29.09 L7.41 28.62 L1.59 42.44" stroke="none" stroke-width="0" fill="#f4f4f4" fill-rule="evenodd"></path><path d="M1.59 42.44 C-0.49 38.38, -2.58 34.32, -5.26 29.09 M1.59 42.44 C-1.1 37.21, -3.78 31.97, -5.26 29.09 M-5.26 29.09 C-0.73 28.93, 3.79 28.76, 7.41 28.62 M-5.26 29.09 C-1.88 28.97, 1.5 28.84, 7.41 28.62 M7.41 28.62 C5.27 33.71, 3.12 38.8, 1.59 42.44 M7.41 28.62 C5.67 32.76, 3.92 36.9, 1.59 42.44 M1.59 42.44 C1.59 42.44, 1.59 42.44, 1.59 42.44 M1.59 42.44 C1.59 42.44, 1.59 42.44, 1.59 42.44" stroke="#f4f4f4" stroke-width="2" fill="none"></path></g></g><mask></mask><g stroke-linecap="round"><g transform="translate(142.72508755271315 141.02849518041927) rotate(0 -31.194613978554457 283.0965048195807)"><path d="M0 0 C-20.49 10.83, -105.38 -12.32, -122.96 64.97 C-140.53 142.26, -134.21 388.93, -105.46 463.72 C-76.71 538.51, 20.24 496.64, 49.54 513.72 C78.84 530.8, 66.87 557.45, 70.34 566.19 M0 0 C-20.49 10.83, -105.38 -12.32, -122.96 64.97 C-140.53 142.26, -134.21 388.93, -105.46 463.72 C-76.71 538.51, 20.24 496.64, 49.54 513.72 C78.84 530.8, 66.87 557.45, 70.34 566.19" stroke="#f4f4f4" stroke-width="2" fill="none"></path></g><g transform="translate(142.72508755271315 141.02849518041927) rotate(0 -31.194613978554457 283.0965048195807)"><path d="M70.34 566.19 L63.45 552.86 L76.12 552.35 L70.34 566.19" stroke="none" stroke-width="0" fill="#f4f4f4" fill-rule="evenodd"></path><path d="M70.34 566.19 C67.77 561.22, 65.2 556.24, 63.45 552.86 M70.34 566.19 C68.13 561.91, 65.92 557.64, 63.45 552.86 M63.45 552.86 C67.11 552.72, 70.76 552.57, 76.12 552.35 M63.45 552.86 C68.37 552.67, 73.28 552.47, 76.12 552.35 M76.12 552.35 C74.75 555.64, 73.38 558.92, 70.34 566.19 M76.12 552.35 C74.52 556.18, 72.92 560.01, 70.34 566.19 M70.34 566.19 C70.34 566.19, 70.34 566.19, 70.34 566.19 M70.34 566.19 C70.34 566.19, 70.34 566.19, 70.34 566.19" stroke="#f4f4f4" stroke-width="2" fill="none"></path></g></g><mask></mask><g transform="translate(121.43402534612073 116) rotate(0 9.583992004394531 10)"><text x="0" y="0" font-family="Virgil, Segoe UI Emoji" font-size="16px" fill="#f4f4f4" text-anchor="start" style="white-space: pre;" direction="ltr" dominant-baseline="text-before-edge">No</text></g><g transform="translate(261.90202003606214 114.75) rotate(0 6.615997314453125 10)"><text x="0" y="0" font-family="Virgil, Segoe UI Emoji" font-size="16px" fill="#f4f4f4" text-anchor="start" style="white-space: pre;" direction="ltr" dominant-baseline="text-before-edge">Si</text></g><g stroke-linecap="round"><g transform="translate(254.60008755271338 141.65349518041933) rotate(0 37.042929797802 28.0965048195807)"><path d="M0 0 C10.65 1.14, 51.57 -2.52, 63.92 6.85 C76.27 16.21, 72.39 47.97, 74.09 56.19 M0 0 C10.65 1.14, 51.57 -2.52, 63.92 6.85 C76.27 16.21, 72.39 47.97, 74.09 56.19" stroke="#f4f4f4" stroke-width="2" fill="none"></path></g><g transform="translate(254.60008755271338 141.65349518041933) rotate(0 37.042929797802 28.0965048195807)"><path d="M74.09 56.19 L67.09 42.92 L79.76 42.31 L74.09 56.19" stroke="none" stroke-width="0" fill="#f4f4f4" fill-rule="evenodd"></path><path d="M74.09 56.19 C71.44 51.17, 68.79 46.15, 67.09 42.92 M74.09 56.19 C72.41 53.01, 70.73 49.82, 67.09 42.92 M67.09 42.92 C70.2 42.77, 73.3 42.62, 79.76 42.31 M67.09 42.92 C72.12 42.68, 77.15 42.43, 79.76 42.31 M79.76 42.31 C77.73 47.26, 75.71 52.21, 74.09 56.19 M79.76 42.31 C78.41 45.59, 77.07 48.88, 74.09 56.19 M74.09 56.19 C74.09 56.19, 74.09 56.19, 74.09 56.19 M74.09 56.19 C74.09 56.19, 74.09 56.19, 74.09 56.19" stroke="#f4f4f4" stroke-width="2" fill="none"></path></g></g><mask></mask><g stroke-linecap="round" transform="translate(275.01801735051527 196.5) rotate(0 53.5 49.5)"><path d="M67.5 12.5 M67.5 12.5 C74.67 21.76, 85.15 31.3, 93.5 37.5 M67.5 12.5 C73.86 17.5, 79.56 25.1, 93.5 37.5 M93.5 37.5 C106.75 51.28, 106.74 49.4, 93.5 62.5 M93.5 37.5 C106.23 48.25, 107.42 47.83, 93.5 62.5 M93.5 62.5 C83.93 68.35, 79.25 75.5, 67.5 86.5 M93.5 62.5 C87.49 67.52, 80.19 73.49, 67.5 86.5 M67.5 86.5 C55.31 97.67, 54.62 98.57, 40.5 86.5 M67.5 86.5 C53.05 100.03, 54.74 97.91, 40.5 86.5 M40.5 86.5 C30.25 79.31, 20.07 69.16, 13.5 62.5 M40.5 86.5 C33.77 80.66, 27.51 75.21, 13.5 62.5 M13.5 62.5 C-1.52 48.62, -1.87 50.53, 13.5 37.5 M13.5 62.5 C0.19 51.2, 1.37 49.19, 13.5 37.5 M13.5 37.5 C22.25 30.15, 35.27 17.9, 40.5 12.5 M13.5 37.5 C19 32.27, 26.07 26.11, 40.5 12.5 M40.5 12.5 C55.66 1.45, 53.88 0.78, 67.5 12.5 M40.5 12.5 C52.71 -1.3, 55.39 1.79, 67.5 12.5" stroke="#e613c4ff" stroke-width="2" fill="none"></path></g><g transform="translate(306.8720365155543 226.25) rotate(0 21.895980834960938 20)"><text x="21.895980834960938" y="0" font-family="Virgil, Segoe UI Emoji" font-size="16px" fill="#e613c4ff" text-anchor="middle" style="white-space: pre;" direction="ltr" dominant-baseline="text-before-edge">Hay </text><text x="21.895980834960938" y="20" font-family="Virgil, Segoe UI Emoji" font-size="16px" fill="#e613c4ff" text-anchor="middle" style="white-space: pre;" direction="ltr" dominant-baseline="text-before-edge">café?</text></g><g transform="translate(253.86480784377227 225.38614596414197) rotate(0 9.583992004394531 10)"><text x="0" y="0" font-family="Virgil, Segoe UI Emoji" font-size="16px" fill="#f4f4f4" text-anchor="start" style="white-space: pre;" direction="ltr" dominant-baseline="text-before-edge">No</text></g><g stroke-linecap="round"><g transform="translate(276.87635095315 246.61385403585803) rotate(0 -31.30416680131725 -0.13440327391353435)"><path d="M0 0 C-10.43 -0.04, -52.17 -0.22, -62.61 -0.27 M0 0 C-10.43 -0.04, -52.17 -0.22, -62.61 -0.27" stroke="#f4f4f4" stroke-width="2" fill="none"></path></g><g transform="translate(276.87635095315 246.61385403585803) rotate(0 -31.30416680131725 -0.13440327391353435)"><path d="M-62.61 -0.27 L-48.99 -6.55 L-49.04 6.13 L-62.61 -0.27" stroke="none" stroke-width="0" fill="#f4f4f4" fill-rule="evenodd"></path><path d="M-62.61 -0.27 C-59.86 -1.54, -57.11 -2.8, -48.99 -6.55 M-62.61 -0.27 C-59.34 -1.77, -56.08 -3.28, -48.99 -6.55 M-48.99 -6.55 C-49.01 -2.07, -49.03 2.41, -49.04 6.13 M-48.99 -6.55 C-49 -2.35, -49.02 1.84, -49.04 6.13 M-49.04 6.13 C-53.51 4.02, -57.99 1.91, -62.61 -0.27 M-49.04 6.13 C-52.38 4.56, -55.71 2.98, -62.61 -0.27 M-62.61 -0.27 C-62.61 -0.27, -62.61 -0.27, -62.61 -0.27 M-62.61 -0.27 C-62.61 -0.27, -62.61 -0.27, -62.61 -0.27" stroke="#f4f4f4" stroke-width="2" fill="none"></path></g></g><mask></mask><g stroke-linecap="round" transform="translate(254.76801735051527 320) rotate(0 80 23.5)"><path d="M11.75 0 M11.75 0 C61.29 2.89, 108.8 2.08, 148.25 0 M11.75 0 C45.31 0.28, 79.37 0.82, 148.25 0 M148.25 0 C156.1 1.87, 161.77 4.72, 160 11.75 M148.25 0 C157.95 -0.7, 160.27 3.35, 160 11.75 M160 11.75 C160.26 17.54, 159.67 25.15, 160 35.25 M160 11.75 C159.88 17.85, 159.91 22.59, 160 35.25 M160 35.25 C159.52 42.88, 155.89 47.11, 148.25 47 M160 35.25 C158.41 43.63, 153.81 49.25, 148.25 47 M148.25 47 C111.15 45.95, 72.7 46.7, 11.75 47 M148.25 47 C107.57 47.15, 65.93 46.22, 11.75 47 M11.75 47 C1.97 46.72, 1.65 43.55, 0 35.25 M11.75 47 C3.4 45.24, -1.86 43.02, 0 35.25 M0 35.25 C-1.31 28.8, -0.56 23.07, 0 11.75 M0 35.25 C-0.56 29.25, -1.18 22.12, 0 11.75 M0 11.75 C0.43 3.65, 3.86 1.49, 11.75 0 M0 11.75 C0.77 6.04, 2.55 0.09, 11.75 0" stroke="#e1ff00" stroke-width="2" fill="none"></path></g><g transform="translate(290.5440488446559 333.5) rotate(0 44.223968505859375 10)"><text x="44.223968505859375" y="0" font-family="Virgil, Segoe UI Emoji" font-size="16px" fill="#e1ff00" text-anchor="middle" style="white-space: pre;" direction="ltr" dominant-baseline="text-before-edge">Servir café</text></g><g stroke-linecap="round" transform="translate(446.01801735051527 215) rotate(0 80 23.5)"><path d="M11.75 0 M11.75 0 C55.26 0.12, 101.61 0.6, 148.25 0 M11.75 0 C61.53 0.08, 111.69 -0.18, 148.25 0 M148.25 0 C158.04 -0.52, 158.13 5.13, 160 11.75 M148.25 0 C155.24 -0.67, 161.58 3.44, 160 11.75 M160 11.75 C161.52 17.62, 161.18 27.14, 160 35.25 M160 11.75 C159.37 19.06, 159.34 24.98, 160 35.25 M160 35.25 C159.04 43.87, 157.28 48.65, 148.25 47 M160 35.25 C159.83 40.8, 153.92 48.21, 148.25 47 M148.25 47 C118.86 47.9, 84.39 46.61, 11.75 47 M148.25 47 C96.57 48.54, 44.46 47.87, 11.75 47 M11.75 47 C2.4 47.83, -1.35 43.2, 0 35.25 M11.75 47 C5.01 47.08, -0.47 43.83, 0 35.25 M0 35.25 C-0.66 31.67, -1.9 25.82, 0 11.75 M0 35.25 C-0.76 28.44, 0.32 21.28, 0 11.75 M0 11.75 C-0.87 3.48, 3.19 -1.3, 11.75 0 M0 11.75 C-1.56 5.65, 4.43 2.07, 11.75 0" stroke="#e1ff00" stroke-width="2" fill="none"></path></g><g transform="translate(469.85005622991 228.5) rotate(0 56.16796112060547 10)"><text x="56.16796112060547" y="0" font-family="Virgil, Segoe UI Emoji" font-size="16px" fill="#e1ff00" text-anchor="middle" style="white-space: pre;" direction="ltr" dominant-baseline="text-before-edge">Calentar café</text></g><g stroke-linecap="round"><g transform="translate(378.3544633397455 244.28295029980404) rotate(0 32.79340321027996 0.3478694519724854)"><path d="M0 0 C10.93 0.12, 54.66 0.58, 65.59 0.7 M0 0 C10.93 0.12, 54.66 0.58, 65.59 0.7" stroke="#f4f4f4" stroke-width="2" fill="none"></path></g><g transform="translate(378.3544633397455 244.28295029980404) rotate(0 32.79340321027996 0.3478694519724854)"><path d="M65.59 0.7 L51.93 6.89 L52.06 -5.79 L65.59 0.7" stroke="none" stroke-width="0" fill="#f4f4f4" fill-rule="evenodd"></path><path d="M65.59 0.7 C61.76 2.43, 57.93 4.17, 51.93 6.89 M65.59 0.7 C60.76 2.89, 55.93 5.07, 51.93 6.89 M51.93 6.89 C51.96 4.11, 51.98 1.33, 52.06 -5.79 M51.93 6.89 C51.96 3.71, 51.99 0.53, 52.06 -5.79 M52.06 -5.79 C55.35 -4.21, 58.64 -2.64, 65.59 0.7 M52.06 -5.79 C57.31 -3.27, 62.56 -0.75, 65.59 0.7 M65.59 0.7 C65.59 0.7, 65.59 0.7, 65.59 0.7 M65.59 0.7 C65.59 0.7, 65.59 0.7, 65.59 0.7" stroke="#f4f4f4" stroke-width="2" fill="none"></path></g></g><mask></mask><g transform="translate(383.15202003606214 219.75) rotate(0 6.615997314453125 10)"><text x="0" y="0" font-family="Virgil, Segoe UI Emoji" font-size="16px" fill="#f4f4f4" text-anchor="start" style="white-space: pre;" direction="ltr" dominant-baseline="text-before-edge">Si</text></g><g stroke-linecap="round"><g transform="translate(137.39139419413755 265.40349518041927) rotate(0 57.14405087266721 40.83615497668953)"><path d="M0 0 C2.13 12.29, -6.27 60.32, 12.79 73.72 C31.85 87.12, 97.43 79.28, 114.36 80.39 M0 0 C2.13 12.29, -6.27 60.32, 12.79 73.72 C31.85 87.12, 97.43 79.28, 114.36 80.39" stroke="#f4f4f4" stroke-width="2" fill="none"></path></g><g transform="translate(137.39139419413755 265.40349518041927) rotate(0 57.14405087266721 40.83615497668953)"><path d="M114.36 80.39 L100.92 87.04 L100.62 74.37 L114.36 80.39" stroke="none" stroke-width="0" fill="#f4f4f4" fill-rule="evenodd"></path><path d="M114.36 80.39 C110.03 82.53, 105.71 84.67, 100.92 87.04 M114.36 80.39 C110.56 82.27, 106.76 84.15, 100.92 87.04 M100.92 87.04 C100.81 82.63, 100.71 78.21, 100.62 74.37 M100.92 87.04 C100.8 82.08, 100.69 77.12, 100.62 74.37 M100.62 74.37 C105.91 76.69, 111.2 79, 114.36 80.39 M100.62 74.37 C105.5 76.5, 110.37 78.64, 114.36 80.39 M114.36 80.39 C114.36 80.39, 114.36 80.39, 114.36 80.39 M114.36 80.39 C114.36 80.39, 114.36 80.39, 114.36 80.39" stroke="#f4f4f4" stroke-width="2" fill="none"></path></g></g><mask></mask><g stroke-linecap="round"><g transform="translate(536.2967810493265 264.7784951804194) rotate(0 -57.93146305139089 40.67886735741712)"><path d="M0 0 C-1.62 12.08, 9.93 58.96, -9.7 72.47 C-29.33 85.99, -99.77 79.66, -117.79 81.1 M0 0 C-1.62 12.08, 9.93 58.96, -9.7 72.47 C-29.33 85.99, -99.77 79.66, -117.79 81.1" stroke="#f4f4f4" stroke-width="2" fill="none"></path></g><g transform="translate(536.2967810493265 264.7784951804194) rotate(0 -57.93146305139089 40.67886735741712)"><path d="M-117.79 81.1 L-104.18 74.79 L-104.21 87.46 L-117.79 81.1" stroke="none" stroke-width="0" fill="#f4f4f4" fill-rule="evenodd"></path><path d="M-117.79 81.1 C-113.55 79.13, -109.31 77.17, -104.18 74.79 M-117.79 81.1 C-113.85 79.27, -109.91 77.44, -104.18 74.79 M-104.18 74.79 C-104.19 79.5, -104.2 84.22, -104.21 87.46 M-104.18 74.79 C-104.19 78.16, -104.19 81.53, -104.21 87.46 M-104.21 87.46 C-109.03 85.2, -113.86 82.94, -117.79 81.1 M-104.21 87.46 C-108.31 85.54, -112.42 83.61, -117.79 81.1 M-117.79 81.1 C-117.79 81.1, -117.79 81.1, -117.79 81.1 M-117.79 81.1 C-117.79 81.1, -117.79 81.1, -117.79 81.1" stroke="#f4f4f4" stroke-width="2" fill="none"></path></g></g><mask></mask><g stroke-linecap="round" transform="translate(282.51801735051527 424) rotate(0 53.5 49.5)"><path d="M67.5 12.5 M67.5 12.5 C74.57 21.81, 82.43 27.23, 93.5 37.5 M67.5 12.5 C73.11 18.96, 79.88 24.63, 93.5 37.5 M93.5 37.5 C105.18 48.68, 105.66 48.22, 93.5 62.5 M93.5 37.5 C108.65 49.89, 105 52.23, 93.5 62.5 M93.5 62.5 C84.92 70.67, 80.64 76.68, 67.5 86.5 M93.5 62.5 C87.76 67.48, 82.02 73.72, 67.5 86.5 M67.5 86.5 C55.13 99.14, 55.08 100.67, 40.5 86.5 M67.5 86.5 C55.65 98.15, 51.81 98.81, 40.5 86.5 M40.5 86.5 C31.04 78.34, 20.56 69.11, 13.5 62.5 M40.5 86.5 C33.34 81.68, 28.88 75.22, 13.5 62.5 M13.5 62.5 C-1.61 48.5, 1.35 48.27, 13.5 37.5 M13.5 62.5 C-0.04 49.05, -2.06 49.89, 13.5 37.5 M13.5 37.5 C22.6 30.95, 29.94 20.51, 40.5 12.5 M13.5 37.5 C23.87 29.37, 32.61 19.59, 40.5 12.5 M40.5 12.5 C54.64 -0.64, 55.13 -1.23, 67.5 12.5 M40.5 12.5 C52.79 -0.9, 54.1 0.29, 67.5 12.5" stroke="#e613c4ff" stroke-width="2" fill="none"></path></g><g transform="translate(314.9880262006129 453.75) rotate(0 21.279991149902344 20)"><text x="21.279991149902344" y="0" font-family="Virgil, Segoe UI Emoji" font-size="16px" fill="#e613c4ff" text-anchor="middle" style="white-space: pre;" direction="ltr" dominant-baseline="text-before-edge">Dulce</text><text x="21.279991149902344" y="20" font-family="Virgil, Segoe UI Emoji" font-size="16px" fill="#e613c4ff" text-anchor="middle" style="white-space: pre;" direction="ltr" dominant-baseline="text-before-edge"> ok?</text></g><g stroke-linecap="round"><g transform="translate(334.7250875527129 366.48024277062893) rotate(0 0.7064849404517872 28.263494091747646)"><path d="M0 0 C0.24 9.42, 1.18 47.11, 1.41 56.53 M0 0 C0.24 9.42, 1.18 47.11, 1.41 56.53" stroke="#f4f4f4" stroke-width="2" fill="none"></path></g><g transform="translate(334.7250875527129 366.48024277062893) rotate(0 0.7064849404517872 28.263494091747646)"><path d="M1.41 56.53 L-5.26 43.1 L7.41 42.78 L1.41 56.53" stroke="none" stroke-width="0" fill="#f4f4f4" fill-rule="evenodd"></path><path d="M1.41 56.53 C0.02 53.73, -1.37 50.92, -5.26 43.1 M1.41 56.53 C-1.03 51.62, -3.46 46.71, -5.26 43.1 M-5.26 43.1 C-0.26 42.97, 4.74 42.84, 7.41 42.78 M-5.26 43.1 C-0.64 42.98, 3.98 42.86, 7.41 42.78 M7.41 42.78 C5.42 47.33, 3.44 51.89, 1.41 56.53 M7.41 42.78 C5.11 48.04, 2.82 53.31, 1.41 56.53 M1.41 56.53 C1.41 56.53, 1.41 56.53, 1.41 56.53 M1.41 56.53 C1.41 56.53, 1.41 56.53, 1.41 56.53" stroke="#f4f4f4" stroke-width="2" fill="none"></path></g></g><mask></mask><g stroke-linecap="round" transform="translate(59.768017350515265 450) rotate(0 80 23.5)"><path d="M11.75 0 M11.75 0 C53.68 -0.94, 93.64 -0.38, 148.25 0 M11.75 0 C64.96 1.31, 117.25 1.18, 148.25 0 M148.25 0 C155.96 1.23, 159.09 4.66, 160 11.75 M148.25 0 C153.93 -2.11, 159.37 5.25, 160 11.75 M160 11.75 C159.47 17.77, 158.11 20.19, 160 35.25 M160 11.75 C159.73 20.81, 160.32 30.5, 160 35.25 M160 35.25 C158.13 43.79, 154.31 45.76, 148.25 47 M160 35.25 C160.1 42.55, 156.49 45.14, 148.25 47 M148.25 47 C117.21 47.06, 87.29 47.96, 11.75 47 M148.25 47 C94.49 46.75, 40.31 47.74, 11.75 47 M11.75 47 C4.16 46.79, -1.86 43.27, 0 35.25 M11.75 47 C5.68 48.86, -0.91 43.21, 0 35.25 M0 35.25 C-0.69 31.34, 1.83 23.5, 0 11.75 M0 35.25 C-0.31 30.61, -0.78 25.04, 0 11.75 M0 11.75 C-0.39 4.31, 4.64 -0.48, 11.75 0 M0 11.75 C0.23 5.21, 2.65 1.17, 11.75 0" stroke="#e1ff00" stroke-width="2" fill="none"></path></g><g transform="translate(83.80006080754652 463.5) rotate(0 55.96795654296875 10)"><text x="55.96795654296875" y="0" font-family="Virgil, Segoe UI Emoji" font-size="16px" fill="#e1ff00" text-anchor="middle" style="white-space: pre;" direction="ltr" dominant-baseline="text-before-edge">Añadir azúcar</text></g><g stroke-linecap="round" transform="translate(195.76801735051527 708.75) rotate(0 16.5 16)"><path d="M33 16 C33 16.93, 32.92 17.87, 32.75 18.78 C32.58 19.69, 32.33 20.6, 32 21.47 C31.68 22.34, 31.27 23.2, 30.79 24 C30.31 24.8, 29.75 25.58, 29.14 26.28 C28.53 26.99, 27.84 27.66, 27.11 28.26 C26.37 28.85, 25.58 29.39, 24.75 29.86 C23.92 30.32, 23.04 30.72, 22.14 31.04 C21.25 31.35, 20.31 31.6, 19.37 31.76 C18.42 31.92, 17.46 32, 16.5 32 C15.54 32, 14.58 31.92, 13.63 31.76 C12.69 31.6, 11.75 31.35, 10.86 31.04 C9.96 30.72, 9.08 30.32, 8.25 29.86 C7.42 29.39, 6.63 28.85, 5.89 28.26 C5.16 27.66, 4.47 26.99, 3.86 26.28 C3.25 25.58, 2.69 24.8, 2.21 24 C1.73 23.2, 1.32 22.34, 1 21.47 C0.67 20.6, 0.42 19.69, 0.25 18.78 C0.08 17.87, 0 16.93, 0 16 C0 15.07, 0.08 14.13, 0.25 13.22 C0.42 12.31, 0.67 11.4, 1 10.53 C1.32 9.66, 1.73 8.8, 2.21 8 C2.69 7.2, 3.25 6.42, 3.86 5.72 C4.47 5.01, 5.16 4.34, 5.89 3.74 C6.63 3.15, 7.42 2.61, 8.25 2.14 C9.08 1.68, 9.96 1.28, 10.86 0.96 C11.75 0.65, 12.69 0.4, 13.63 0.24 C14.58 0.08, 15.54 0, 16.5 0 C17.46 0, 18.42 0.08, 19.37 0.24 C20.31 0.4, 21.25 0.65, 22.14 0.96 C23.04 1.28, 23.92 1.68, 24.75 2.14 C25.58 2.61, 26.37 3.15, 27.11 3.74 C27.84 4.34, 28.53 5.01, 29.14 5.72 C29.75 6.42, 30.31 7.2, 30.79 8 C31.27 8.8, 31.68 9.66, 32 10.53 C32.33 11.4, 32.58 12.31, 32.75 13.22 C32.92 14.13, 32.96 15.54, 33 16 C33.04 16.46, 33.04 15.54, 33 16" stroke="none" stroke-width="0" fill="#f4f4f4"></path><path d="M33 16 C33 16.93, 32.92 17.87, 32.75 18.78 C32.58 19.69, 32.33 20.6, 32 21.47 C31.68 22.34, 31.27 23.2, 30.79 24 C30.31 24.8, 29.75 25.58, 29.14 26.28 C28.53 26.99, 27.84 27.66, 27.11 28.26 C26.37 28.85, 25.58 29.39, 24.75 29.86 C23.92 30.32, 23.04 30.72, 22.14 31.04 C21.25 31.35, 20.31 31.6, 19.37 31.76 C18.42 31.92, 17.46 32, 16.5 32 C15.54 32, 14.58 31.92, 13.63 31.76 C12.69 31.6, 11.75 31.35, 10.86 31.04 C9.96 30.72, 9.08 30.32, 8.25 29.86 C7.42 29.39, 6.63 28.85, 5.89 28.26 C5.16 27.66, 4.47 26.99, 3.86 26.28 C3.25 25.58, 2.69 24.8, 2.21 24 C1.73 23.2, 1.32 22.34, 1 21.47 C0.67 20.6, 0.42 19.69, 0.25 18.78 C0.08 17.87, 0 16.93, 0 16 C0 15.07, 0.08 14.13, 0.25 13.22 C0.42 12.31, 0.67 11.4, 1 10.53 C1.32 9.66, 1.73 8.8, 2.21 8 C2.69 7.2, 3.25 6.42, 3.86 5.72 C4.47 5.01, 5.16 4.34, 5.89 3.74 C6.63 3.15, 7.42 2.61, 8.25 2.14 C9.08 1.68, 9.96 1.28, 10.86 0.96 C11.75 0.65, 12.69 0.4, 13.63 0.24 C14.58 0.08, 15.54 0, 16.5 0 C17.46 0, 18.42 0.08, 19.37 0.24 C20.31 0.4, 21.25 0.65, 22.14 0.96 C23.04 1.28, 23.92 1.68, 24.75 2.14 C25.58 2.61, 26.37 3.15, 27.11 3.74 C27.84 4.34, 28.53 5.01, 29.14 5.72 C29.75 6.42, 30.31 7.2, 30.79 8 C31.27 8.8, 31.68 9.66, 32 10.53 C32.33 11.4, 32.58 12.31, 32.75 13.22 C32.92 14.13, 32.96 15.54, 33 16 C33.04 16.46, 33.04 15.54, 33 16" stroke="#f4f4f4" stroke-width="2" fill="none"></path></g><g stroke-linecap="round"><g transform="translate(286.4039666582205 473.02122868682693) rotate(0 -31.831265532583643 -0.558750393787875)"><path d="M0 0 C-10.61 -0.19, -53.05 -0.93, -63.66 -1.12 M0 0 C-10.61 -0.19, -53.05 -0.93, -63.66 -1.12" stroke="#f4f4f4" stroke-width="2" fill="none"></path></g><g transform="translate(286.4039666582205 473.02122868682693) rotate(0 -31.831265532583643 -0.558750393787875)"><path d="M-63.66 -1.12 L-49.96 -7.22 L-50.18 5.46 L-63.66 -1.12" stroke="none" stroke-width="0" fill="#f4f4f4" fill-rule="evenodd"></path><path d="M-63.66 -1.12 C-59.55 -2.95, -55.43 -4.78, -49.96 -7.22 M-63.66 -1.12 C-60.44 -2.55, -57.21 -3.99, -49.96 -7.22 M-49.96 -7.22 C-50.04 -2.86, -50.11 1.5, -50.18 5.46 M-49.96 -7.22 C-50.05 -2.23, -50.13 2.76, -50.18 5.46 M-50.18 5.46 C-53.24 3.97, -56.3 2.47, -63.66 -1.12 M-50.18 5.46 C-55.54 2.85, -60.9 0.23, -63.66 -1.12 M-63.66 -1.12 C-63.66 -1.12, -63.66 -1.12, -63.66 -1.12 M-63.66 -1.12 C-63.66 -1.12, -63.66 -1.12, -63.66 -1.12" stroke="#f4f4f4" stroke-width="2" fill="none"></path></g></g><mask></mask><g stroke-linecap="round" transform="translate(419.76801735051527 541.25) rotate(0 80 23.5)"><path d="M11.75 0 M11.75 0 C47.16 -0.91, 87.11 -0.09, 148.25 0 M11.75 0 C60.92 -0.55, 110.8 -0.08, 148.25 0 M148.25 0 C156.73 -0.1, 159.66 3.95, 160 11.75 M148.25 0 C157.07 0.28, 158.61 3.73, 160 11.75 M160 11.75 C160.86 21.74, 158.36 29.17, 160 35.25 M160 11.75 C159.25 19.57, 159.25 26.05, 160 35.25 M160 35.25 C160.62 44.22, 154.87 48.39, 148.25 47 M160 35.25 C162.03 42.03, 155.86 46.65, 148.25 47 M148.25 47 C118.82 48.62, 89.22 47.99, 11.75 47 M148.25 47 C106.88 45.38, 65.33 45.22, 11.75 47 M11.75 47 C3.4 48.91, -0.06 44.68, 0 35.25 M11.75 47 C1.79 48.24, 2.3 44.26, 0 35.25 M0 35.25 C1.65 31.46, -1.33 24.4, 0 11.75 M0 35.25 C-0.58 29.51, 0.3 26.46, 0 11.75 M0 11.75 C-1.3 3.2, 2.52 0.81, 11.75 0 M0 11.75 C-1.35 2.91, 4.87 1.35, 11.75 0" stroke="#e1ff00" stroke-width="2" fill="none"></path></g><g transform="translate(452.89604622014417 554.75) rotate(0 46.871971130371094 10)"><text x="46.871971130371094" y="0" font-family="Virgil, Segoe UI Emoji" font-size="16px" fill="#e1ff00" text-anchor="middle" style="white-space: pre;" direction="ltr" dominant-baseline="text-before-edge">Tomar café</text></g><g transform="translate(261.43402534612073 474.75) rotate(0 9.583992004394531 10)"><text x="0" y="0" font-family="Virgil, Segoe UI Emoji" font-size="16px" fill="#f4f4f4" text-anchor="start" style="white-space: pre;" direction="ltr" dominant-baseline="text-before-edge">No</text></g><g stroke-linecap="round"><g transform="translate(388.1547047049669 471.802988436545) rotate(0 56.13443756544871 33.37445714767733)"><path d="M0 0 C16.1 0.91, 77.9 -5.88, 96.61 5.45 C115.32 16.77, 109.66 57.53, 112.27 67.95 M0 0 C16.1 0.91, 77.9 -5.88, 96.61 5.45 C115.32 16.77, 109.66 57.53, 112.27 67.95" stroke="#f4f4f4" stroke-width="2" fill="none"></path></g><g transform="translate(388.1547047049669 471.802988436545) rotate(0 56.13443756544871 33.37445714767733)"><path d="M112.27 67.95 L105.09 54.77 L117.75 53.98 L112.27 67.95" stroke="none" stroke-width="0" fill="#f4f4f4" fill-rule="evenodd"></path><path d="M112.27 67.95 C109.57 63, 106.88 58.05, 105.09 54.77 M112.27 67.95 C109.44 62.74, 106.6 57.54, 105.09 54.77 M105.09 54.77 C108.34 54.57, 111.59 54.37, 117.75 53.98 M105.09 54.77 C110.08 54.46, 115.07 54.15, 117.75 53.98 M117.75 53.98 C116.59 56.94, 115.43 59.89, 112.27 67.95 M117.75 53.98 C115.87 58.77, 113.99 63.57, 112.27 67.95 M112.27 67.95 C112.27 67.95, 112.27 67.95, 112.27 67.95 M112.27 67.95 C112.27 67.95, 112.27 67.95, 112.27 67.95" stroke="#f4f4f4" stroke-width="2" fill="none"></path></g></g><mask></mask><g stroke-linecap="round"><g transform="translate(502.6105015231162 587.25) rotate(0 -145.79624208630048 60.625)"><path d="M0 0 C-5.47 9.17, 10.76 44.58, -32.84 55 C-76.44 65.42, -218.47 51.46, -261.59 62.5 C-304.72 73.54, -286.59 111.46, -291.59 121.25 M0 0 C-5.47 9.17, 10.76 44.58, -32.84 55 C-76.44 65.42, -218.47 51.46, -261.59 62.5 C-304.72 73.54, -286.59 111.46, -291.59 121.25" stroke="#f4f4f4" stroke-width="2" fill="none"></path></g><g transform="translate(502.6105015231162 587.25) rotate(0 -145.79624208630048 60.625)"><path d="M-291.59 121.25 L-297.44 107.44 L-284.77 107.89 L-291.59 121.25" stroke="none" stroke-width="0" fill="#f4f4f4" fill-rule="evenodd"></path><path d="M-291.59 121.25 C-293 117.93, -294.41 114.61, -297.44 107.44 M-291.59 121.25 C-293.63 116.43, -295.67 111.62, -297.44 107.44 M-297.44 107.44 C-294.57 107.54, -291.7 107.64, -284.77 107.89 M-297.44 107.44 C-293.76 107.57, -290.09 107.7, -284.77 107.89 M-284.77 107.89 C-286.93 112.11, -289.08 116.33, -291.59 121.25 M-284.77 107.89 C-286.17 110.63, -287.57 113.37, -291.59 121.25 M-291.59 121.25 C-291.59 121.25, -291.59 121.25, -291.59 121.25 M-291.59 121.25 C-291.59 121.25, -291.59 121.25, -291.59 121.25" stroke="#f4f4f4" stroke-width="2" fill="none"></path></g></g><mask></mask><g stroke-linecap="round"><g transform="translate(59.40461735609938 474) rotate(0 125.25254589298618 -26.070653998195553)"><path d="M0 0 C-3.69 -1.96, -23.24 -3.75, -22.14 -11.75 C-21.03 -19.75, -43.18 -41.33, 6.61 -48 C56.41 -54.67, 231.61 -51.13, 276.61 -51.75 M0 0 C-3.69 -1.96, -23.24 -3.75, -22.14 -11.75 C-21.03 -19.75, -43.18 -41.33, 6.61 -48 C56.41 -54.67, 231.61 -51.13, 276.61 -51.75" stroke="#f4f4f4" stroke-width="2" fill="none"></path></g><g transform="translate(59.40461735609938 474) rotate(0 125.25254589298618 -26.070653998195553)"><path d="M276.61 -51.75 L263 -45.45 L263.03 -58.12 L276.61 -51.75" stroke="none" stroke-width="0" fill="#f4f4f4" fill-rule="evenodd"></path><path d="M276.61 -51.75 C272.53 -49.86, 268.45 -47.97, 263 -45.45 M276.61 -51.75 C272.39 -49.79, 268.16 -47.83, 263 -45.45 M263 -45.45 C263.02 -50.42, 263.03 -55.39, 263.03 -58.12 M263 -45.45 C263.01 -48.04, 263.02 -50.64, 263.03 -58.12 M263.03 -58.12 C267.62 -55.97, 272.2 -53.82, 276.61 -51.75 M263.03 -58.12 C268.45 -55.58, 273.86 -53.04, 276.61 -51.75 M276.61 -51.75 C276.61 -51.75, 276.61 -51.75, 276.61 -51.75 M276.61 -51.75 C276.61 -51.75, 276.61 -51.75, 276.61 -51.75" stroke="#f4f4f4" stroke-width="2" fill="none"></path></g></g><mask></mask><g transform="translate(403.15202003606214 476) rotate(0 6.615997314453125 10)"><text x="0" y="0" font-family="Virgil, Segoe UI Emoji" font-size="16px" fill="#f4f4f4" text-anchor="start" style="white-space: pre;" direction="ltr" dominant-baseline="text-before-edge">Si</text></g></svg>